{"title":"Formula 1 2013 Spain - David Coulthard's Grid Walk","uid":8467757,"size":86575660,"categoryP":"video","categoryS":"tv_shows","magnet":"?xt=urn:btih:a36f9d5273d4185998acde1dd15d28e5e0913d4c&amp;dn=Formula+1+2013+Spain+-+David+Coulthard%27s+Grid+Walk&amp;tr=udp%3A%2F%2Ftracker.openbittorrent.com%3A80&amp;tr=udp%3A%2F%2Fopen.demonii.com%3A1337&amp;tr=udp%3A%2F%2Ftracker.coppersurfer.tk%3A6969&amp;tr=udp%3A%2F%2Fexodus.desync.com%3A6969","seeders":0,"leechers":0,"uploader":"IAMH67","files":5,"time":1368404200,"description":"David Coulthard's grid walk from the F1 Spanish GP. \n\nRuntime is about 10 minutes.\n\nTechnical Inforamtion : \n\nVideo\nID                             : 0\nFormat                         : MPEG-4 Visual\nFormat profile                 : Advanced Simple@L5\nFormat settings, BVOP          : 2\nFormat settings, QPel          : No\nFormat settings, GMC           : No warppoints\nFormat settings, Matrix        : Default (H.263)\nMuxing mode                    : Packed bitstream\nCodec ID                       : XVID\nCodec ID/Hint                  : XviD\nDuration                       : 7mn 18s\nBit rate                       : 1 442 Kbps\nWidth                          : 608 pixels\nHeight                         : 336 pixels\nDisplay aspect ratio           : 16:9\nFrame rate                     : 25.000 fps\nColor space                    : YUV\nChroma subsampling             : 4:2:0\nBit depth                      : 8 bits\nScan type                      : Progressive\nCompression mode               : Lossy\nBits/(Pixel*Frame)             : 0.282\nStream size                    : 75.3 MiB (91%)\nWriting library                : XviD 1.2.1 (UTC 2008-12-04)\n\nAudio\nID                             : 1\nFormat                         : MPEG Audio\nFormat version                 : Version 1\nFormat profile                 : Layer 3\nMode                           : Joint stereo\nMode extension                 : MS Stereo\nCodec ID                       : 55\nCodec ID/Hint                  : MP3\nDuration                       : 7mn 18s\nBit rate mode                  : Constant\nBit rate                       : 128 Kbps\nChannel(s)                     : 2 channels\nSampling rate                  : 48.0 KHz\nCompression mode               : Lossy\nStream size                    : 6.68 MiB (8%)\nAlignment                      : Aligned on interleaves\nInterleave, duration           : 40 ms (1.00 video frame)\nInterleave, preload duration   : 504 ms\n\n\nScreens : \n &lt;a href=&quot;\nhttp://i.imgur.com/UU4u5Ua.jpg&quot; rel=&quot;nofollow&quot; target=&quot;_NEW&quot;&gt;\nhttp://i.imgur.com/UU4u5Ua.jpg&lt;/a&gt;\n &lt;a href=&quot;\nhttp://i.imgur.com/VWlXyiB.jpg&quot; rel=&quot;nofollow&quot; target=&quot;_NEW&quot;&gt;\nhttp://i.imgur.com/VWlXyiB.jpg&lt;/a&gt;\n &lt;a href=&quot;\nhttp://i.imgur.com/z9QfK5A.jpg&quot; rel=&quot;nofollow&quot; target=&quot;_NEW&quot;&gt;\nhttp://i.imgur.com/z9QfK5A.jpg&lt;/a&gt;","torrent":{"xt":"urn:btih:a36f9d5273d4185998acde1dd15d28e5e0913d4c","amp;dn":"Formula+1+2013+Spain+-+David+Coulthard%27s+Grid+Walk","amp;tr":["udp%3A%2F%2Ftracker.openbittorrent.com%3A80","udp%3A%2F%2Fopen.demonii.com%3A1337","udp%3A%2F%2Ftracker.coppersurfer.tk%3A6969","udp%3A%2F%2Fexodus.desync.com%3A6969"],"infoHash":"a36f9d5273d4185998acde1dd15d28e5e0913d4c","infoHashBuffer":{"type":"Buffer","data":[163,111,157,82,115,212,24,89,152,172,222,29,209,93,40,229,224,145,61,76]},"announce":[],"urlList":[]}}